<?xml version="1.0" standalone="no"?>
<!DOCTYPE svg PUBLIC "-//W3C//DTD SVG 20010904//EN"
 "http://www.w3.org/TR/2001/REC-SVG-20010904/DTD/svg10.dtd">
<svg version="1.0"
    xmlns="http://www.w3.org/2000/svg" width="200.000000pt" height="200.000000pt" viewBox="0 0 200.000000 200.000000" preserveAspectRatio="xMidYMid meet">
    <metadata>
Created by potrace 1.16, written by Peter Selinger 2001-2019
    </metadata>
    <g transform="translate(0.000000,200.000000) scale(0.100000,-0.100000)" fill="#000000" stroke="none">
        <path d="M398 1989 c-173 -23 -301 -119 -358 -267 -36 -95 -42 -209 -38 -787
4 -487 6 -557 22 -610 45 -154 151 -260 306 -302 59 -16 120 -18 670 -18 550
0 611 2 670 18 157 43 264 150 307 307 16 59 18 120 18 670 0 550 -2 611 -18
670 -42 155 -148 262 -302 306 -54 16 -122 18 -635 20 -316 1 -605 -2 -642 -7z
m737 -353 c396 -110 600 -565 418 -934 -21 -42 -39 -80 -41 -84 -2 -4 43 -9
100 -10 l103 -3 3 -143 3 -142 -423 0 c-480 0 -510 4 -647 71 -175 86 -318
268 -361 459 -14 66 -12 226 5 296 57 242 239 426 490 495 85 23 256 21 350
-5z"/>
        <path d="M867 1359 c-190 -45 -324 -247 -287 -433 26 -132 113 -242 228 -287
79 -32 204 -32 283 -1 246 98 312 426 124 615 -95 95 -225 135 -348 106z"/>
    </g>
</svg>